# xmcd CD database file
#
# Track frame offsets:
#	150
#	18620
#	37980
#	72475
#	92050
#	115505
#	133675
#	157037
#	175067
#	191612
#	219855
#
# Disc length: 3372 seconds
#
# Revision: 0
# Processed by: cddbd v1.5.2PL0 Copyright (c) Steve Scherf et al.
# Submitted via: CDex 1.70beta2
#
DISCID=910d2a0b
DTITLE=Manhattan Jazz Story - 6 You'd Be So Nice To Come Home To
DYEAR=1992
DGENRE=Jazz
TTITLE0=Jordu - Clifford Brown
TTITLE1=Love Is A Many Splendored Thing- Clifford Brown
TTITLE2=What Is This Thing Called Love - Clifford Brown
TTITLE3=You'd Be So Nice To Come Home To - Helen Merrill
TTITLE4=Don't Explain -  Helen Merrill
TTITLE5=Lullaby Of Birdland - Sarah Vaughan
TTITLE6=Willow Weep For Me - Sarah Vaughan
TTITLE7=Smoke Gets In Your Eyes - Sarah Vaughan
TTITLE8=Stardust - Dinah Washington
TTITLE9=Stars Fell On Alabama - Cannonball Adderley
TTITLE10=No Problem - Art Blakey
EXTD=YEAR: 1992
EXTT0=
EXTT1=
EXTT2=
EXTT3=
EXTT4=
EXTT5=
EXTT6=
EXTT7=
EXTT8=
EXTT9=
EXTT10=
PLAYORDER=
